<svg id="Layer_1" data-name="Layer 1" xmlns="http://www.w3.org/2000/svg" viewBox="0 0 966.07 396.18"><defs><style>.cls-1{fill:#fff;}.cls-2{fill:#1de7ce;fill-rule:evenodd;}</style></defs><path class="cls-1" d="M543.56,1174.66l9.92-16h24.8l-15.75-45.13-25.67,73.4H517l27-77c3.22-9.17,8.8-16.24,18.47-16.24s15.25,7.07,18.48,16.24l27,77H588.2l-4.34-12.27Z" transform="translate(-517.02 -790.75)"/><path class="cls-1" d="M644,1133.37h33.6v-38.44h18.6v92H677.6v-37.57H637.8v37.57H619.2v-92h18.6v48.48Z" transform="translate(-517.02 -790.75)"/><path class="cls-1" d="M777.79,1173.54H758.2l-20.58-59.64-7.07,73H710.71l8.43-76.63c1.24-10.66,9.3-16,17.11-16a15.07,15.07,0,0,1,14.51,9.8L768,1154.45l17.23-50.34a15.07,15.07,0,0,1,14.51-9.8c7.81,0,15.87,5.33,17.11,16l8.43,76.63H805.44l-7.07-73Z" transform="translate(-517.02 -790.75)"/><path class="cls-1" d="M857,1170.94h47.49l8.68,16H855.91c-9.67,0-17.48-7.31-17.48-16.24v-59.52c0-8.92,7.81-16.24,17.48-16.24H913.2l-8.68,16H857v22.45H900.8v16H857Z" transform="translate(-517.02 -790.75)"/><path class="cls-1" d="M944.2,1094.93h25c19.6,0,35.59,15.62,35.59,35V1152c0,19.34-16,35-35.59,35H926.72v-75.76C926.72,1102.25,934.53,1094.93,944.2,1094.93Zm42,35c0-10.42-7.56-19-17-19H945.31v60h23.93c9.43,0,17-8.56,17-19Z" transform="translate(-517.02 -790.75)"/><path class="cls-1" d="M1100.31,1094.93c9.67,0,23.56,3.84,30,10l-16.12,12.4c-3.1-4-8.81-6.45-13.89-6.45h-12.4c-9.3,0-16.74,8.56-16.74,19V1152c0,10.41,7.57,19,17,19h23.93v-29.88h18.6v29.63c0,8.93-7.81,16.24-17.48,16.24h-25c-19.59,0-35.59-15.62-35.59-35V1129.9a35.16,35.16,0,0,1,35.34-35Z" transform="translate(-517.02 -790.75)"/><path class="cls-1" d="M1165.41,1174.66l9.92-16h24.8l-15.75-45.13-25.66,73.4h-19.84l27-77c3.22-9.17,8.8-16.24,18.47-16.24s15.25,7.07,18.48,16.24l27,77h-19.84l-4.34-12.27Z" transform="translate(-517.02 -790.75)"/><path class="cls-1" d="M1302.8,1170.94l8.68,16h-53.56c-9.68,0-17.49-7.31-17.49-16.24v-75.76H1259v76Z" transform="translate(-517.02 -790.75)"/><path class="cls-1" d="M1337,1174.66l9.92-16h24.8L1356,1113.53l-25.67,73.4h-19.84l27-77c3.23-9.17,8.81-16.24,18.48-16.24s15.25,7.07,18.47,16.24l27,77h-19.84l-4.34-12.27Z" transform="translate(-517.02 -790.75)"/><path class="cls-1" d="M1474.42,1170.94l8.67,16h-53.56c-9.67,0-17.48-7.31-17.48-16.24v-75.76h18.6v76Z" transform="translate(-517.02 -790.75)"/><path class="cls-2" d="M986.27,969.72a60.35,60.35,0,0,1-8.19-11.08c-10.57-18.3-11.05-39.34-.53-57.56l43.08-74.61L1000,790.75,865.56,1023.6h41.26l34.81-60.29a94.87,94.87,0,0,0,88.43,60.29h104.38q-46.61-80.7-93.19-161.4l-30.74,53.25c-9.56,16.57-.67,36.11,17.31,41.48l13.43-23.28,31.31,54.22h-44.25c-16.81,0-30.33-5.6-42-18.15" transform="translate(-517.02 -790.75)"/></svg>